<?xml version="1.0" encoding="UTF-8"?>
<svg id="Layer_2" data-name="Layer 2" xmlns="http://www.w3.org/2000/svg" viewBox="0 0 160 160">
  <defs>
    <style>
      .cls-1 {
        fill: #0089eb;
      }
    </style>
  </defs>
  <path class="cls-1" d="M75.59,150.34c-11.97-.77,4.8-3.31,8.42-6.3,13.63-7.19,19.69-22.08,13.86-37.02-5.04-16.94,16.27-26.67,14.04-43.77.1-1.81-1.08-4.16-.41-5.24,2.99,1.16,5.91,6.82,7.62,9.74,3.84,6.33,3.61,15.26.76,22.46-4.22,12.4,4.55,19.17,9.71,3.36.45-1.13,1.62-4.72,2.59-2.5,10.28,34.03-24.55,61.28-55.57,59.3l-1.01-.03Z"/>
  <path class="cls-1" d="M26.14,94.01c.58-4.85,1.59-9.24,3.67-13.76.93-2.06,5.25-9.3,3.2-2.1-1.87,8.67-1.22,19.46,5.58,25.97.9.86,1.93,1.95,2.63,2.98,1.36,2.12-4,1.51-3.4,3.08,1.18,3.22,10.17,7.24,11.35,7.54,1,.44,10.36,2.49,4.81,5.38-18.81,7.04-28.97-12.67-27.9-28.15l.06-.94Z"/>
  <path class="cls-1" d="M59.75,40.17c10.7,1.9,20.54,14.49,12.05,24.32-2.03,2.37-5.09,4.3-7.4,6.45-1.48,1.17-2.69,3.4-3.65,3.01-4.45-6.59,2.13-17.06-.7-23.74-.9-4.07-4.05-7.09-6.88-10.07-.2-.9,4.57-.36,5.89-.15l.69.18Z"/>
  <path class="cls-1" d="M103.65,74.06c8.58-16.17-.7-30.49-12.05-42.16-6.38-6.37-8.56-14.54-11.05-22.16l-.28-.21s-3.89,5.3-5.28,11.03c-.25,1.5-.43,2.96-.53,4.26-.04.8-.13,3.38.1,5.81.09.74.19,1.46.34,2.14,0,0,0,.01,0,.02,1.08,5.05,3.48,8.94,4.93,15.75,3.38,11.21-5.56,19.34-9.89,28.64-2.76,6.08-2.28,15.93-.11,20.9.96,3.54,5.28,9.95,5.59,15.03-1.24.04-2.79-2.56-3.9-3.54-7.1-8.56-23.16-13.81-24.16-25.56-.32-2.4.76-1.45,3.37,1.48,1.69,1.9,3.99,3.71,6.36,4.65,7.76,2.5,5.33-4.76.97-9.78-2.91-3.79-5.24-8.81-5.76-13.97-.88-8.22,3.16-19.6-7.31-6.92-9.91,11.66-12.29,23.08-8.55,36.4,2.22,9.14,15.36,15.88,19.65,24.45,2.9,7.69-5.56,11.97-12.59,10.38-4.73-.84-9.15-2.61-8.98-.91-.02.71.75,2.01,2.07,3.62,11.83,14.53,33.16,17.1,46.69,4.63,13.72-10.11,7.19-28.73,8.98-43.03,1.73-7.61,7.79-14.03,11.39-20.96Z"/>
</svg>